<?xml version="1.0" encoding="UTF-8" standalone="no"?>
<!DOCTYPE svg PUBLIC "-//W3C//DTD SVG 1.1//EN" "http://www.w3.org/Graphics/SVG/1.1/DTD/svg11.dtd">
<svg width="100%" height="100%" viewBox="0 0 1746 319" version="1.1" xmlns="http://www.w3.org/2000/svg" xmlns:xlink="http://www.w3.org/1999/xlink" xml:space="preserve" xmlns:serif="http://www.serif.com/" style="fill-rule:evenodd;clip-rule:evenodd;stroke-linejoin:bevel;stroke-miterlimit:2;">
    <g transform="matrix(1,0,0,1,-127.466667,-840.666667)">
        <g transform="matrix(1,0,0,1,-1174.704131,-241)">
            <path d="M1406.104,1367.6C1406.104,1379.867 1399.971,1386 1387.704,1386L1328.904,1386C1316.637,1386 1310.504,1379.867 1310.504,1367.6L1310.504,1262C1310.504,1253.733 1311.771,1244.333 1314.304,1233.8C1316.837,1223.267 1320.904,1210.8 1326.504,1196.4L1361.304,1106C1364.771,1095.333 1372.771,1090 1385.304,1090L1492.904,1090C1505.171,1090 1513.037,1095.2 1516.504,1105.6L1551.304,1196.4C1556.904,1210.8 1560.971,1223.267 1563.504,1233.8C1566.037,1244.333 1567.304,1253.733 1567.304,1262L1567.304,1367.6C1567.304,1379.867 1561.171,1386 1548.904,1386L1488.504,1386C1475.437,1386 1468.904,1379.867 1468.904,1367.6L1468.904,1315.6L1406.104,1315.6L1406.104,1367.6ZM1402.104,1367.6L1402.104,1311.6L1472.904,1311.6L1472.904,1367.6C1472.904,1377.2 1478.104,1382 1488.504,1382L1548.904,1382C1558.504,1382 1563.304,1377.2 1563.304,1367.6L1563.304,1262C1563.304,1254 1562.037,1244.8 1559.504,1234.4C1556.971,1224 1553.037,1211.867 1547.704,1198L1512.904,1107.2C1509.971,1098.4 1503.304,1094 1492.904,1094L1385.304,1094C1374.637,1094 1367.837,1098.4 1364.904,1107.2L1330.104,1198C1324.771,1211.867 1320.837,1224 1318.304,1234.4C1315.771,1244.8 1314.504,1254 1314.504,1262L1314.504,1367.6C1314.504,1377.2 1319.304,1382 1328.904,1382L1387.704,1382C1397.304,1382 1402.104,1377.2 1402.104,1367.6ZM1520.904,1346L1516.904,1346L1516.904,1277.2L1360.904,1277.2L1360.904,1346L1356.904,1346L1356.904,1260.8C1356.904,1253.333 1357.504,1246.467 1358.704,1240.2C1359.904,1233.933 1361.571,1227.867 1363.704,1222L1389.304,1156.4C1392.237,1148.933 1395.571,1142.667 1399.304,1137.6C1403.037,1132.533 1409.437,1130 1418.504,1130L1457.704,1130C1466.504,1130 1472.704,1132.533 1476.304,1137.6C1479.904,1142.667 1483.304,1149.067 1486.504,1156.8L1514.104,1222C1516.237,1227.867 1517.904,1233.933 1519.104,1240.2C1520.304,1246.467 1520.904,1253.333 1520.904,1260.8L1520.904,1346ZM1360.904,1273.2L1516.904,1273.2L1516.904,1260.8C1516.904,1253.6 1516.371,1246.933 1515.304,1240.8C1514.237,1234.667 1512.637,1228.933 1510.504,1223.6L1482.904,1158.4C1479.971,1151.467 1476.904,1145.667 1473.704,1141C1470.504,1136.333 1465.171,1134 1457.704,1134L1418.504,1134C1410.504,1134 1404.904,1136.267 1401.704,1140.8C1398.504,1145.333 1395.571,1151.067 1392.904,1158L1367.304,1223.6C1365.437,1228.933 1363.904,1234.667 1362.704,1240.8C1361.504,1246.933 1360.904,1253.6 1360.904,1260.8L1360.904,1273.2ZM1424.904,1178C1426.771,1173.467 1429.304,1171.2 1432.504,1171.2L1442.504,1171.2C1445.704,1171.2 1448.237,1173.467 1450.104,1178L1468.904,1238.8L1406.104,1238.8L1424.904,1178ZM1428.904,1179.2L1411.704,1234.8L1463.304,1234.8L1446.104,1179.2C1445.837,1178.133 1445.437,1177.2 1444.904,1176.4C1444.371,1175.6 1443.571,1175.2 1442.504,1175.2L1432.504,1175.2C1431.437,1175.2 1430.637,1175.667 1430.104,1176.6C1429.571,1177.533 1429.171,1178.4 1428.904,1179.2Z" style="fill:currentColor;fill-rule:nonzero;stroke:currentColor;stroke-width:16.67px;"/>
            <path d="M1830.504,1386L1626.904,1386C1614.637,1386 1608.504,1379.867 1608.504,1367.6L1608.504,1108.4C1608.504,1096.133 1614.637,1090 1626.904,1090L1688.904,1090C1701.171,1090 1707.304,1096.133 1707.304,1108.4L1707.304,1302.4L1754.104,1302.4L1754.104,1241.6C1754.104,1229.333 1760.237,1223.2 1772.504,1223.2L1830.504,1223.2C1842.771,1223.2 1848.904,1229.333 1848.904,1241.6L1848.904,1367.6C1848.904,1379.867 1842.771,1386 1830.504,1386ZM1830.504,1382C1840.104,1382 1844.904,1377.2 1844.904,1367.6L1844.904,1241.6C1844.904,1232 1840.104,1227.2 1830.504,1227.2L1772.504,1227.2C1762.904,1227.2 1758.104,1232 1758.104,1241.6L1758.104,1306.4L1703.304,1306.4L1703.304,1108.4C1703.304,1098.8 1698.504,1094 1688.904,1094L1626.904,1094C1617.304,1094 1612.504,1098.8 1612.504,1108.4L1612.504,1367.6C1612.504,1377.2 1617.304,1382 1626.904,1382L1830.504,1382ZM1803.304,1263.2L1803.304,1346L1656.104,1346L1656.104,1130L1660.104,1130L1660.104,1342L1799.304,1342L1799.304,1263.2L1803.304,1263.2Z" style="fill:currentColor;fill-rule:nonzero;stroke:currentColor;stroke-width:16.67px;"/>
            <path d="M2058.504,1386L1904.904,1386C1892.637,1386 1886.504,1379.867 1886.504,1367.6L1886.504,1108.4C1886.504,1096.133 1892.637,1090 1904.904,1090L2032.504,1090C2060.504,1090 2080.971,1095.333 2093.904,1106C2106.837,1116.667 2113.304,1133.067 2113.304,1155.2L2113.304,1174.4C2113.304,1193.333 2107.971,1206.933 2097.304,1215.2C2111.704,1218.667 2122.437,1225.6 2129.504,1236C2136.571,1246.4 2140.104,1260.933 2140.104,1279.6L2140.104,1316.4C2140.104,1339.867 2133.571,1357.333 2120.504,1368.8C2107.437,1380.267 2086.771,1386 2058.504,1386ZM2058.504,1382C2085.171,1382 2104.771,1376.667 2117.304,1366C2129.837,1355.333 2136.104,1338.8 2136.104,1316.4L2136.104,1279.6C2136.104,1259.867 2132.037,1245 2123.904,1235C2115.771,1225 2103.037,1219.2 2085.704,1217.6C2101.437,1210.933 2109.304,1196.533 2109.304,1174.4L2109.304,1155.2C2109.304,1134.133 2103.037,1118.667 2090.504,1108.8C2077.971,1098.933 2058.637,1094 2032.504,1094L1904.904,1094C1895.304,1094 1890.504,1098.8 1890.504,1108.4L1890.504,1367.6C1890.504,1377.2 1895.304,1382 1904.904,1382L2058.504,1382ZM1934.904,1130L2016.104,1130C2031.037,1130 2042.237,1131.933 2049.704,1135.8C2057.171,1139.667 2062.171,1144.8 2064.704,1151.2C2067.237,1157.6 2068.504,1164.667 2068.504,1172.4L2068.504,1198C2068.504,1206 2067.104,1213.333 2064.304,1220C2061.504,1226.667 2054.371,1231.467 2042.904,1234.4C2057.837,1234.4 2068.971,1236.4 2076.304,1240.4C2083.637,1244.4 2088.571,1249.867 2091.104,1256.8C2093.637,1263.733 2094.904,1271.6 2094.904,1280.4L2094.904,1306C2094.904,1313.733 2093.637,1320.667 2091.104,1326.8C2088.571,1332.933 2083.571,1337.667 2076.104,1341C2068.637,1344.333 2057.437,1346 2042.504,1346L1934.904,1346L1934.904,1130ZM1938.904,1238.4L1938.904,1342L2042.504,1342C2055.837,1342 2065.971,1340.533 2072.904,1337.6C2079.837,1334.667 2084.571,1330.467 2087.104,1325C2089.637,1319.533 2090.904,1313.2 2090.904,1306L2090.904,1280.4C2090.904,1272.4 2089.704,1265.267 2087.304,1259C2084.904,1252.733 2080.304,1247.733 2073.504,1244C2066.704,1240.267 2056.504,1238.4 2042.904,1238.4L1938.904,1238.4ZM2016.104,1234.4C2030.771,1234.4 2041.504,1232.667 2048.304,1229.2C2055.104,1225.733 2059.504,1221.267 2061.504,1215.8C2063.504,1210.333 2064.504,1204.4 2064.504,1198L2064.504,1172.4C2064.504,1165.2 2063.304,1158.667 2060.904,1152.8C2058.504,1146.933 2053.837,1142.333 2046.904,1139C2039.971,1135.667 2029.704,1134 2016.104,1134L1938.904,1134L1938.904,1234.4L2016.104,1234.4ZM1980.504,1266.8L2032.504,1266.8C2042.637,1266.8 2047.704,1272 2047.704,1282.4L2047.704,1298C2047.704,1308.667 2042.637,1314 2032.504,1314L1980.504,1314L1980.504,1266.8ZM1984.504,1270.8L1984.504,1310L2032.504,1310C2039.971,1310 2043.704,1306 2043.704,1298L2043.704,1282.4C2043.704,1274.667 2039.971,1270.8 2032.504,1270.8L1984.504,1270.8ZM1980.504,1162L2014.504,1162C2024.637,1162 2029.704,1167.333 2029.704,1178L2029.704,1189.2C2029.704,1199.867 2024.637,1205.2 2014.504,1205.2L1980.504,1205.2L1980.504,1162ZM1984.504,1166L1984.504,1201.2L2014.504,1201.2C2021.971,1201.2 2025.704,1197.2 2025.704,1189.2L2025.704,1178C2025.704,1170 2021.971,1166 2014.504,1166L1984.504,1166Z" style="fill:currentColor;fill-rule:nonzero;stroke:currentColor;stroke-width:16.67px;"/>
            <path d="M2429.704,1306.4C2429.704,1318.933 2427.904,1330.467 2424.304,1341C2420.704,1351.533 2414.237,1360.6 2404.904,1368.2C2395.571,1375.8 2382.637,1381.667 2366.104,1385.8C2349.571,1389.933 2328.237,1392 2302.104,1392C2276.237,1392 2254.971,1389.933 2238.304,1385.8C2221.637,1381.667 2208.637,1375.8 2199.304,1368.2C2189.971,1360.6 2183.504,1351.533 2179.904,1341C2176.304,1330.467 2174.504,1318.933 2174.504,1306.4L2174.504,1108.4C2174.504,1096.133 2180.637,1090 2192.904,1090L2255.704,1090C2267.971,1090 2274.104,1096.133 2274.104,1108.4L2274.104,1290.8C2274.104,1295.6 2276.171,1299.267 2280.304,1301.8C2284.437,1304.333 2291.971,1305.6 2302.904,1305.6C2314.104,1305.6 2321.771,1304.333 2325.904,1301.8C2330.037,1299.267 2332.104,1295.6 2332.104,1290.8L2332.104,1108.4C2332.104,1102 2333.504,1097.333 2336.304,1094.4C2339.104,1091.467 2343.837,1090 2350.504,1090L2411.304,1090C2423.571,1090 2429.704,1096.133 2429.704,1108.4L2429.704,1306.4ZM2425.704,1306.4L2425.704,1108.4C2425.704,1098.8 2420.904,1094 2411.304,1094L2350.504,1094C2340.904,1094 2336.104,1098.8 2336.104,1108.4L2336.104,1290.8C2336.104,1296.133 2334.104,1300.6 2330.104,1304.2C2326.104,1307.8 2317.037,1309.6 2302.904,1309.6C2289.037,1309.6 2280.104,1307.8 2276.104,1304.2C2272.104,1300.6 2270.104,1296.133 2270.104,1290.8L2270.104,1108.4C2270.104,1098.8 2265.304,1094 2255.704,1094L2192.904,1094C2183.304,1094 2178.504,1098.8 2178.504,1108.4L2178.504,1306.4C2178.504,1318.667 2180.304,1329.8 2183.904,1339.8C2187.504,1349.8 2193.904,1358.4 2203.104,1365.6C2212.304,1372.8 2224.904,1378.333 2240.904,1382.2C2256.904,1386.067 2277.304,1388 2302.104,1388C2326.904,1388 2347.304,1386.067 2363.304,1382.2C2379.304,1378.333 2391.904,1372.8 2401.104,1365.6C2410.304,1358.4 2416.704,1349.8 2420.304,1339.8C2423.904,1329.8 2425.704,1318.667 2425.704,1306.4ZM2222.504,1130L2226.504,1130L2226.504,1296.8C2226.504,1306.667 2228.704,1315.4 2233.104,1323C2237.504,1330.6 2245.237,1336.467 2256.304,1340.6C2267.371,1344.733 2282.771,1346.8 2302.504,1346.8C2322.504,1346.8 2338.037,1344.733 2349.104,1340.6C2360.171,1336.467 2367.904,1330.6 2372.304,1323C2376.704,1315.4 2378.904,1306.667 2378.904,1296.8L2378.904,1130L2382.904,1130L2382.904,1296.8C2382.904,1307.467 2380.571,1316.867 2375.904,1325C2371.237,1333.133 2363.104,1339.467 2351.504,1344C2339.904,1348.533 2323.571,1350.8 2302.504,1350.8C2281.704,1350.8 2265.504,1348.533 2253.904,1344C2242.304,1339.467 2234.171,1333.133 2229.504,1325C2224.837,1316.867 2222.504,1307.467 2222.504,1296.8L2222.504,1130Z" style="fill:currentColor;fill-rule:nonzero;stroke:currentColor;stroke-width:16.67px;"/>
            <path d="M2552.904,1386L2493.304,1386C2481.037,1386 2474.904,1379.867 2474.904,1367.6L2474.904,1108.4C2474.904,1096.133 2481.037,1090 2493.304,1090L2557.704,1090C2562.771,1090 2566.971,1091 2570.304,1093C2573.637,1095 2576.771,1098.667 2579.704,1104L2615.704,1169.2C2616.237,1170.267 2616.837,1171.333 2617.504,1172.4C2618.171,1173.467 2619.037,1174 2620.104,1174L2622.104,1174C2623.171,1174 2624.037,1173.467 2624.704,1172.4C2625.371,1171.333 2625.971,1170.267 2626.504,1169.2L2662.104,1104C2665.037,1098.667 2668.171,1095 2671.504,1093C2674.837,1091 2679.037,1090 2684.104,1090L2748.904,1090C2761.171,1090 2767.304,1096.133 2767.304,1108.4L2767.304,1367.6C2767.304,1379.867 2761.171,1386 2748.904,1386L2687.304,1386C2680.637,1386 2675.904,1384.533 2673.104,1381.6C2670.304,1378.667 2668.904,1374 2668.904,1367.6L2668.904,1242.8L2652.904,1272.4C2647.571,1282.267 2639.304,1287.2 2628.104,1287.2L2612.104,1287.2C2600.904,1287.2 2592.637,1282.267 2587.304,1272.4L2571.304,1242.8L2571.304,1367.6C2571.304,1379.867 2565.171,1386 2552.904,1386ZM2552.904,1382C2562.504,1382 2567.304,1377.2 2567.304,1367.6L2567.304,1226.8L2590.904,1270.4C2595.437,1278.933 2602.504,1283.2 2612.104,1283.2L2628.104,1283.2C2637.704,1283.2 2644.771,1278.933 2649.304,1270.4L2672.904,1226.8L2672.904,1367.6C2672.904,1377.2 2677.704,1382 2687.304,1382L2748.904,1382C2758.504,1382 2763.304,1377.2 2763.304,1367.6L2763.304,1108.4C2763.304,1098.8 2758.504,1094 2748.904,1094L2684.104,1094C2676.104,1094 2669.971,1098 2665.704,1106L2630.104,1171.2C2628.771,1173.6 2627.637,1175.333 2626.704,1176.4C2625.771,1177.467 2624.504,1178 2622.904,1178L2619.304,1178C2617.704,1178 2616.437,1177.467 2615.504,1176.4C2614.571,1175.333 2613.437,1173.6 2612.104,1171.2L2576.104,1106C2571.837,1098 2565.704,1094 2557.704,1094L2493.304,1094C2483.704,1094 2478.904,1098.8 2478.904,1108.4L2478.904,1367.6C2478.904,1377.2 2483.704,1382 2493.304,1382L2552.904,1382ZM2619.704,1228C2624.504,1228 2627.971,1226.933 2630.104,1224.8C2632.237,1222.667 2635.571,1218.133 2640.104,1211.2L2688.904,1136.8C2690.504,1134.133 2692.304,1132.333 2694.304,1131.4C2696.304,1130.467 2698.371,1130 2700.504,1130L2707.304,1130C2714.504,1130 2718.104,1134.133 2718.104,1142.4L2718.104,1346L2714.104,1346L2714.104,1142.4C2714.104,1140.267 2713.704,1138.333 2712.904,1136.6C2712.104,1134.867 2710.237,1134 2707.304,1134L2701.304,1134C2699.437,1134 2697.837,1134.267 2696.504,1134.8C2695.171,1135.333 2693.704,1136.933 2692.104,1139.6L2643.304,1213.2C2638.504,1220.4 2634.837,1225.333 2632.304,1228C2629.771,1230.667 2625.571,1232 2619.704,1232C2613.837,1232 2609.637,1230.667 2607.104,1228C2604.571,1225.333 2600.904,1220.4 2596.104,1213.2L2547.304,1139.6C2545.704,1136.933 2544.171,1135.333 2542.704,1134.8C2541.237,1134.267 2539.571,1134 2537.704,1134L2531.704,1134C2529.037,1134 2527.304,1134.867 2526.504,1136.6C2525.704,1138.333 2525.304,1140.267 2525.304,1142.4L2525.304,1346L2521.304,1346L2521.304,1142.4C2521.304,1134.133 2524.771,1130 2531.704,1130L2538.504,1130C2540.637,1130 2542.771,1130.467 2544.904,1131.4C2547.037,1132.333 2548.904,1134.133 2550.504,1136.8L2599.304,1211.2C2603.837,1218.133 2607.171,1222.667 2609.304,1224.8C2611.437,1226.933 2614.904,1228 2619.704,1228Z" style="fill:currentColor;fill-rule:nonzero;stroke:currentColor;stroke-width:16.67px;"/>
            <path d="M2952.104,1386L2825.704,1386C2813.437,1386 2807.304,1379.867 2807.304,1367.6L2807.304,1320.8C2807.304,1308.533 2813.437,1302.4 2825.704,1302.4L2933.304,1302.4C2935.437,1302.4 2937.037,1301.6 2938.104,1300C2939.171,1298.4 2939.704,1296.667 2939.704,1294.8C2939.704,1288.667 2937.437,1285.467 2932.904,1285.2L2872.904,1276.8C2859.571,1274.667 2847.971,1271.133 2838.104,1266.2C2828.237,1261.267 2820.637,1254 2815.304,1244.4C2809.971,1234.8 2807.304,1222.133 2807.304,1206.4L2807.304,1164.4C2807.304,1140.4 2814.904,1122 2830.104,1109.2C2845.304,1096.4 2866.637,1090 2894.104,1090L3006.104,1090C3018.371,1090 3024.504,1096.133 3024.504,1108.4L3024.504,1156C3024.504,1168.267 3018.371,1174.4 3006.104,1174.4L2912.904,1174.4C2910.771,1174.4 2909.104,1175.2 2907.904,1176.8C2906.704,1178.4 2906.104,1180.267 2906.104,1182.4C2906.104,1187.733 2908.504,1190.667 2913.304,1191.2L2972.904,1199.2C2986.237,1201.067 2997.837,1204.533 3007.704,1209.6C3017.571,1214.667 3025.237,1222 3030.704,1231.6C3036.171,1241.2 3038.904,1253.867 3038.904,1269.6L3038.904,1311.6C3038.904,1335.6 3031.237,1354 3015.904,1366.8C3000.571,1379.6 2979.304,1386 2952.104,1386ZM2952.104,1382C2977.971,1382 2998.237,1375.933 3012.904,1363.8C3027.571,1351.667 3034.904,1334.267 3034.904,1311.6L3034.904,1269.6C3034.904,1254.667 3032.304,1242.667 3027.104,1233.6C3021.904,1224.533 3014.637,1217.667 3005.304,1213C2995.971,1208.333 2985.037,1205.067 2972.504,1203.2L2912.904,1195.2C2905.704,1194.4 2902.104,1190.133 2902.104,1182.4C2902.104,1174.4 2905.704,1170.4 2912.904,1170.4L3006.104,1170.4C3015.704,1170.4 3020.504,1165.6 3020.504,1156L3020.504,1108.4C3020.504,1098.8 3015.704,1094 3006.104,1094L2894.104,1094C2868.237,1094 2847.971,1100 2833.304,1112C2818.637,1124 2811.304,1141.467 2811.304,1164.4L2811.304,1206.4C2811.304,1228.8 2816.971,1244.733 2828.304,1254.2C2839.637,1263.667 2854.637,1269.867 2873.304,1272.8L2933.304,1281.2C2936.771,1281.467 2939.371,1282.667 2941.104,1284.8C2942.837,1286.933 2943.704,1290.267 2943.704,1294.8C2943.704,1298 2942.837,1300.733 2941.104,1303C2939.371,1305.267 2936.771,1306.4 2933.304,1306.4L2825.704,1306.4C2816.104,1306.4 2811.304,1311.2 2811.304,1320.8L2811.304,1367.6C2811.304,1377.2 2816.104,1382 2825.704,1382L2952.104,1382ZM2984.504,1134L2895.704,1134C2884.504,1134 2875.571,1137.067 2868.904,1143.2C2862.237,1149.333 2858.904,1157.067 2858.904,1166.4L2858.904,1199.2C2858.904,1208.533 2860.771,1215 2864.504,1218.6C2868.237,1222.2 2873.171,1224.667 2879.304,1226L2963.704,1243.2C2971.704,1244.8 2978.304,1248.2 2983.504,1253.4C2988.704,1258.6 2991.304,1268.267 2991.304,1282.4L2991.304,1305.6C2991.304,1317.333 2987.304,1327 2979.304,1334.6C2971.304,1342.2 2960.504,1346 2946.904,1346L2847.304,1346L2847.304,1342L2946.904,1342C2959.437,1342 2969.304,1338.6 2976.504,1331.8C2983.704,1325 2987.304,1316.267 2987.304,1305.6L2987.304,1282.4C2987.304,1269.867 2985.104,1261.267 2980.704,1256.6C2976.304,1251.933 2970.371,1248.8 2962.904,1247.2L2878.504,1230C2871.571,1228.667 2865.904,1225.933 2861.504,1221.8C2857.104,1217.667 2854.904,1210.133 2854.904,1199.2L2854.904,1166.4C2854.904,1155.733 2858.637,1147 2866.104,1140.2C2873.571,1133.4 2883.437,1130 2895.704,1130L2984.504,1130L2984.504,1134Z" style="fill:currentColor;fill-rule:nonzero;stroke:currentColor;stroke-width:16.67px;"/>
        </g>
    </g>
</svg>
