<?xml version="1.0" encoding="UTF-8" standalone="no"?>
<!DOCTYPE svg PUBLIC "-//W3C//DTD SVG 1.1//EN" "http://www.w3.org/Graphics/SVG/1.1/DTD/svg11.dtd">
<svg width="100%" height="100%" viewBox="0 0 274 313" version="1.1" xmlns="http://www.w3.org/2000/svg" xmlns:xlink="http://www.w3.org/1999/xlink" xml:space="preserve" xmlns:serif="http://www.serif.com/" style="fill-rule:evenodd;clip-rule:evenodd;stroke-linejoin:bevel;stroke-miterlimit:2;">
    <g transform="matrix(1,0,0,1,-127.466667,-840.666667)">
        <g transform="matrix(1,0,0,1,-1174.704131,-241)">
            <path d="M1406.104,1367.6C1406.104,1379.867 1399.971,1386 1387.704,1386L1328.904,1386C1316.637,1386 1310.504,1379.867 1310.504,1367.6L1310.504,1262C1310.504,1253.733 1311.771,1244.333 1314.304,1233.8C1316.837,1223.267 1320.904,1210.8 1326.504,1196.4L1361.304,1106C1364.771,1095.333 1372.771,1090 1385.304,1090L1492.904,1090C1505.171,1090 1513.037,1095.2 1516.504,1105.6L1551.304,1196.4C1556.904,1210.8 1560.971,1223.267 1563.504,1233.8C1566.037,1244.333 1567.304,1253.733 1567.304,1262L1567.304,1367.6C1567.304,1379.867 1561.171,1386 1548.904,1386L1488.504,1386C1475.437,1386 1468.904,1379.867 1468.904,1367.6L1468.904,1315.6L1406.104,1315.6L1406.104,1367.6ZM1402.104,1367.6L1402.104,1311.6L1472.904,1311.6L1472.904,1367.6C1472.904,1377.2 1478.104,1382 1488.504,1382L1548.904,1382C1558.504,1382 1563.304,1377.2 1563.304,1367.6L1563.304,1262C1563.304,1254 1562.037,1244.8 1559.504,1234.4C1556.971,1224 1553.037,1211.867 1547.704,1198L1512.904,1107.2C1509.971,1098.4 1503.304,1094 1492.904,1094L1385.304,1094C1374.637,1094 1367.837,1098.4 1364.904,1107.2L1330.104,1198C1324.771,1211.867 1320.837,1224 1318.304,1234.4C1315.771,1244.8 1314.504,1254 1314.504,1262L1314.504,1367.6C1314.504,1377.2 1319.304,1382 1328.904,1382L1387.704,1382C1397.304,1382 1402.104,1377.2 1402.104,1367.6ZM1520.904,1346L1516.904,1346L1516.904,1277.2L1360.904,1277.2L1360.904,1346L1356.904,1346L1356.904,1260.8C1356.904,1253.333 1357.504,1246.467 1358.704,1240.2C1359.904,1233.933 1361.571,1227.867 1363.704,1222L1389.304,1156.4C1392.237,1148.933 1395.571,1142.667 1399.304,1137.6C1403.037,1132.533 1409.437,1130 1418.504,1130L1457.704,1130C1466.504,1130 1472.704,1132.533 1476.304,1137.6C1479.904,1142.667 1483.304,1149.067 1486.504,1156.8L1514.104,1222C1516.237,1227.867 1517.904,1233.933 1519.104,1240.2C1520.304,1246.467 1520.904,1253.333 1520.904,1260.8L1520.904,1346ZM1360.904,1273.2L1516.904,1273.2L1516.904,1260.8C1516.904,1253.6 1516.371,1246.933 1515.304,1240.8C1514.237,1234.667 1512.637,1228.933 1510.504,1223.6L1482.904,1158.4C1479.971,1151.467 1476.904,1145.667 1473.704,1141C1470.504,1136.333 1465.171,1134 1457.704,1134L1418.504,1134C1410.504,1134 1404.904,1136.267 1401.704,1140.8C1398.504,1145.333 1395.571,1151.067 1392.904,1158L1367.304,1223.6C1365.437,1228.933 1363.904,1234.667 1362.704,1240.8C1361.504,1246.933 1360.904,1253.6 1360.904,1260.8L1360.904,1273.2ZM1424.904,1178C1426.771,1173.467 1429.304,1171.2 1432.504,1171.2L1442.504,1171.2C1445.704,1171.2 1448.237,1173.467 1450.104,1178L1468.904,1238.8L1406.104,1238.8L1424.904,1178ZM1428.904,1179.2L1411.704,1234.8L1463.304,1234.8L1446.104,1179.2C1445.837,1178.133 1445.437,1177.2 1444.904,1176.4C1444.371,1175.6 1443.571,1175.2 1442.504,1175.2L1432.504,1175.2C1431.437,1175.2 1430.637,1175.667 1430.104,1176.6C1429.571,1177.533 1429.171,1178.4 1428.904,1179.2Z" style="fill:white;fill-rule:nonzero;stroke:white;stroke-width:16.67px;"/>
        </g>
    </g>
</svg>
