<?xml version="1.0" encoding="UTF-8" standalone="no"?>
<!DOCTYPE svg PUBLIC "-//W3C//DTD SVG 1.1//EN" "http://www.w3.org/Graphics/SVG/1.1/DTD/svg11.dtd">
<svg width="100%" height="100%" viewBox="0 0 2000 2000" version="1.1" xmlns="http://www.w3.org/2000/svg" xmlns:xlink="http://www.w3.org/1999/xlink" xml:space="preserve" xmlns:serif="http://www.serif.com/" style="fill-rule:evenodd;clip-rule:evenodd;stroke-linejoin:round;stroke-miterlimit:2;">
    <rect x="0" y="0" width="2000" height="2000" style="fill:rgb(51,153,204);"/>
    <g transform="matrix(1,0,0,1,-104.5,-128)">
        <path d="M1104.5,157C1852.584,147.498 1932,466.72 1932,828.5C1932,1190.28 1727.532,1457 1336.5,1457C945.468,1457 396,1174.28 396,812.5C396,450.72 458.527,165.205 1104.5,157Z" style="fill:rgb(102,51,51);"/>
    </g>
    <g transform="matrix(1,0,0,0.992519,0,1.488778)">
        <path d="M1034.5,199C1458.647,199 1740,563.402 1740,1006.038C1740,1050.112 1586.525,1254.36 1532.714,1481.15C1476.093,1719.786 1517.993,2013.575 1517.993,2013.575L969,2013.575C969,2013.575 930.346,1774.675 933,1715.238C934.13,1689.939 925.044,1730.539 784.537,1764.606C668.62,1792.711 542.5,1796.955 542.5,1796.955C542.5,1796.955 412.585,1614.466 362.127,1520.199C312.781,1428.009 239.754,1231.353 239.754,1231.353C239.754,1231.353 357,1022.393 357,927.45C357,484.814 610.353,199 1034.5,199Z" style="fill:rgb(255,153,102);"/>
    </g>
    <g transform="matrix(1.066667,0,0,1,-107.733333,0)">
        <path d="M978.031,28.793C1276.065,28.793 1616,330.349 1616,568.5C1616,806.651 1094.281,1179 1094.281,1179C1094.281,1179 536,806.651 536,568.5C536,330.349 679.997,28.793 978.031,28.793Z" style="fill:rgb(102,51,51);"/>
    </g>
    <g transform="matrix(1,0,0,1.056771,0,-113.54145)">
        <path d="M1827.5,678.897L1935.5,2000L1182,2000L1471.218,724.318C1615.04,587.24 1690.794,540.009 1827.5,678.897Z" style="fill:rgb(102,51,51);"/>
    </g>
    <path d="M1471.218,1190L1704,2000L1506,2000L1471.218,1190Z" style="fill:rgb(51,0,0);"/>
    <g transform="matrix(0.910074,0.414447,-0.414447,0.910074,543.978645,-551.44448)">
        <ellipse cx="1344" cy="1129.5" rx="166" ry="199.5" style="fill:rgb(255,153,102);"/>
    </g>
</svg>
